<svg xmlns="http://www.w3.org/2000/svg" width="64" height="64" viewBox="0 0 64 64">
    <path d="m 446.15625,351.28125 c -1.37483,0 -2.5,1.12527 -2.5,2.5 0,1.37473 1.12517,2.5 2.5,2.5 1.37483,0 2.5,-1.12527 2.5,-2.5 0,-1.37473 -1.12517,-2.5 -2.5,-2.5 z m -8.96875,3 c -1.37483,0 -2.5,1.12527 -2.5,2.5 0,1.37473 1.12517,2.5 2.5,2.5 1.37484,0 2.5,-1.12528 2.5,-2.5 0,-1.37472 -1.12516,-2.5 -2.5,-2.5 z m 17.96875,0 c -1.37483,0 -2.5,1.12527 -2.5,2.5 0,1.37473 1.12517,2.5 2.5,2.5 1.37483,0 2.5,-1.12527 2.5,-2.5 0,-1.37473 -1.12517,-2.5 -2.5,-2.5 z m -9.5,3 0,13 1,0 0,-13 -1,0 z m -8.96875,3 0,2.5 0,0.5 0.5,0 4.46875,0 0,7 1,0 0,-7.5 0,-0.5 -0.5,0 -4.46875,0 0,-2 -1,0 z m 18,0 0,2 -4.5,0 -0.5,0 0,0.5 0,7.5 1,0 0,-7 4.5,0 0.5,0 0,-0.5 0,-2.5 -1,0 z m -25.53125,4 c -1.37475,0 -2.5,1.12524 -2.5,2.5 0,1.37476 1.12525,2.5 2.5,2.5 1.37483,0 2.5,-1.12527 2.5,-2.5 0,-1.37473 -1.12517,-2.5 -2.5,-2.5 z m 35,0 c -1.37483,0 -2.5,1.12527 -2.5,2.5 0,1.37473 1.12517,2.5 2.5,2.5 1.37483,0 2.5,-1.12527 2.5,-2.5 0,-1.37473 -1.12517,-2.5 -2.5,-2.5 z m -31.5,2 0,1 6,0 0,3 1,0 0,-3.5 0,-0.5 -0.5,0 -6.5,0 z m 21,0 0,0.5 0,3.5 1,0 0,-3 6,0 0,-1 -6.5,0 -0.5,0 z m -27.9375,4.03125 c -1.11169,0 -2.03125,0.89475 -2.03125,2 l 0,2.53125 0,27.4375 0,1 3.03125,0 c 0.23417,-1.13637 1.23457,-2 2.4375,-2 1.20293,0 2.23458,0.86363 2.46875,2 l 0.40625,0 37.3125,0 0.34375,0 0,-1 0,-27.4375 0,-2.53125 c 0,-1.10525 -0.91956,-2 -2.03125,-2 l -41.9375,0 z m 0.9375,3 0.5,0 39,0 0.5,0 0,0.5 0,22 0,0.5 -0.5,0 -39,0 -0.5,0 0,-0.5 0,-22 0,-0.5 z m 1,1 0,21 38,0 0,-21 -14.96875,0 0,1 -1,0 0,-1 -7.03125,0 0,1 -1,0 0,-1 -14,0 z m 18,0.9375 1,0 0,1 -1,0 0,-1 z m -4,1.0625 1,0 0,1 -1,0 0,-1 z m 8.03125,0 1,0 0,1 -1,0 0,-1 z m -4.03125,0.9375 1,0 0,1 -1,0 0,-1 z m -4,1.0625 1,0 0,1 -1,0 0,-1 z m 8.03125,0 1,0 0,1 -1,0 0,-1 z m -4.03125,0.9375 1,0 0,1 -1,0 0,-1 z m -4,1.0625 1,0 0,1 -1,0 0,-1 z m 8.03125,0 1,0 0,1 -1,0 0,-1 z m -4.03125,0.9375 1,0 0,1 -1,0 0,-1 z m -4,1.0625 1,0 0,1 -1,0 0,-1 z m 8.03125,0 1,0 0,1 -1,0 0,-1 z m -4.03125,0.9375 1,0 0,1 -1,0 0,-1 z m -4,1.0625 1,0 0,0.9375 -1,0 0,-0.9375 z m 8.03125,0 1,0 0,0.9375 -1,0 0,-0.9375 z m -4.03125,0.9375 1,0 0,1 -1,0 0,-1 z m 1,13.03125 0.53125,0 18.96875,0 0.5,0 0,0.5 0,1.96875 0,0.53125 -0.5,0 -18.96875,0 -0.53125,0 0,-0.53125 0,-1.96875 0,-0.5 z m 1.03125,1 0,0.96875 17.96875,0 0,-0.96875 -17.96875,0 z m -18.53125,3 c -0.73005,0 -1.32993,0.50115 -1.46875,1.1875 l 0,0.625 c 0.13882,0.68635 0.7387,1.1875 1.46875,1.1875 0.83434,0 1.5,-0.66566 1.5,-1.5 0,-0.83434 -0.66566,-1.5 -1.5,-1.5 z m -5.46875,2 0,1 0,0.46875 0,2.53125 c 0,1.10501 0.91942,2 2.03125,2 l 41.9375,0 c 1.11182,0 2.03125,-0.89498 2.03125,-2 l 0,-2.53125 0,-0.46875 0,-1 -0.34375,0 -37.3125,0 -0.40625,0 c -0.23417,1.13637 -1.26582,2 -2.46875,2 -1.20293,0 -2.20333,-0.86363 -2.4375,-2 l -3.03125,0 z m 32,1 c 0.8225,0 1.5,0.6775 1.5,1.5 0,0.8225 -0.6775,1.5 -1.5,1.5 -0.8225,0 -1.5,-0.6775 -1.5,-1.5 0,-0.8225 0.6775,-1.5 1.5,-1.5 z m 5,0 c 0.8225,0 1.5,0.6775 1.5,1.5 0,0.8225 -0.6775,1.5 -1.5,1.5 -0.8225,0 -1.5,-0.6775 -1.5,-1.5 0,-0.8225 0.6775,-1.5 1.5,-1.5 z m 5,0 c 0.8225,0 1.5,0.6775 1.5,1.5 0,0.8225 -0.6775,1.5 -1.5,1.5 -0.8225,0 -1.5,-0.6775 -1.5,-1.5 0,-0.8225 0.6775,-1.5 1.5,-1.5 z m -10,1 c -0.28206,0 -0.5,0.21794 -0.5,0.5 0,0.28206 0.21794,0.5 0.5,0.5 0.28206,0 0.5,-0.21794 0.5,-0.5 0,-0.28206 -0.21794,-0.5 -0.5,-0.5 z m 5,0 c -0.28206,0 -0.5,0.21794 -0.5,0.5 0,0.28206 0.21794,0.5 0.5,0.5 0.28206,0 0.5,-0.21794 0.5,-0.5 0,-0.28206 -0.21794,-0.5 -0.5,-0.5 z m 5,0 c -0.28206,0 -0.5,0.21794 -0.5,0.5 0,0.28206 0.21794,0.5 0.5,0.5 0.28206,0 0.5,-0.21794 0.5,-0.5 0,-0.28206 -0.21794,-0.5 -0.5,-0.5 z" color="#000" font-family="Sans" font-weight="400" overflow="visible" transform="translate(-414.688 -348.781)" style="line-height:normal;-inkscape-font-specification:Sans;text-indent:0;text-align:start;text-decoration-line:none;text-transform:none;block-progression:tb;marker:none"/>
</svg>