<svg xmlns="http://www.w3.org/2000/svg" enable-background="new 0 0 69 69" viewBox="0 0 69 69">
	<path fill="#5bbe88" d="M29.50928,39.32922H12.77979c-0.55273,0-1-0.44775-1-1s0.44727-1,1-1h16.72949c0.55273,0,1,0.44775,1,1
			S30.06201,39.32922,29.50928,39.32922z"/>
	<path fill="#dae8f0" d="M29.50928,45.60559H12.77979c-0.55273,0-1-0.44775-1-1s0.44727-1,1-1h16.72949c0.55273,0,1,0.44775,1,1
			S30.06201,45.60559,29.50928,45.60559z"/>
	<path fill="#5bbe88" d="M56.21729,39.32922H39.48779c-0.55273,0-1-0.44775-1-1s0.44727-1,1-1h16.72949c0.55273,0,1,0.44775,1,1
			S56.77002,39.32922,56.21729,39.32922z"/>
	<path fill="#dae8f0" d="M56.21729,45.60559H39.48779c-0.55273,0-1-0.44775-1-1s0.44727-1,1-1h16.72949c0.55273,0,1,0.44775,1,1
			S56.77002,45.60559,56.21729,45.60559z"/>
	<path fill="#626975" d="M65.34619,24.35559h-3.13965v-2.11084c0-0.55225-0.44727-1-1-1H42.4126c-0.55273,0-1,0.44775-1,1
			s0.44727,1,1,1h17.79395v34.25586H35.49854V34.61487c0-0.55225-0.44727-1-1-1s-1,0.44775-1,1v22.88574H8.79053v-32.1402
			c0-0.00171,0.00098-0.00311,0.00098-0.00482s-0.00098-0.00311-0.00098-0.00482v-2.10602h17.80859c0.55273,0,1-0.44775,1-1
			s-0.44727-1-1-1H7.79053c-0.55273,0-1,0.44775-1,1v2.11084H3.65381c-0.55273,0-1,0.44775-1,1v37.38086c0,0.55225,0.44727,1,1,1
			h27.88574c0.1377,0.51318,0.40723,0.98291,0.79102,1.3667c0.57715,0.57861,1.34766,0.89697,2.16992,0.89697
			c1.41309,0,2.60547-0.96094,2.95801-2.26367h27.8877c0.55273,0,1-0.44775,1-1V25.35559
			C66.34619,24.80334,65.89893,24.35559,65.34619,24.35559z M64.34619,61.73645H36.56494c-0.55273,0-1,0.44775-1,1v0.19873
			c0,0.5874-0.47754,1.06494-1.06445,1.06494c-0.28711,0-0.55469-0.10986-0.75488-0.31006s-0.31055-0.46826-0.31055-0.75488
			v-0.19873c0-0.55225-0.44727-1-1-1H4.65381V26.35559h2.13672v32.14502c0,0.55225,0.44727,1,1,1c16.96837,0,36.44764,0,53.41602,0
			c0.55273,0,1-0.44775,1-1V26.35559h2.13965V61.73645z"/>
	<path fill="#626975" d="M11.77979 50.88196c0 .55225.44727 1 1 1h16.72949c.55273 0 1-.44775 1-1s-.44727-1-1-1H12.77979C12.22705 49.88196 11.77979 50.32971 11.77979 50.88196zM39.48779 51.88196h16.72949c.55273 0 1-.44775 1-1s-.44727-1-1-1H39.48779c-.55273 0-1 .44775-1 1S38.93506 51.88196 39.48779 51.88196z"/>
	<path fill="#f69a8b" d="M42.51445,10.16788c0.25847,2.39312-0.53497,4.60676-1.9735,6.23422
			c-1.39248,1.57535-2.25455,3.54727-2.25455,5.64982v0.62098h-7.57895v-0.46593c0-2.07989-0.7005-4.1357-2.11648-5.65916
			c-1.33648-1.43792-2.15353-3.36551-2.15353-5.48521c0-4.74962,4.11388-8.54438,8.97044-8.01293
			C39.11316,3.45512,42.11419,6.46203,42.51445,10.16788z"/>
	<path fill="#5bbe88" d="M37.76553,24.66263v2.84404c0,1.80341-1.46196,3.26537-3.26537,3.26537h0
			c-1.80342,0-3.26537-1.46196-3.26537-3.26537v-2.84404H37.76553z"/>
</svg>