<svg width="115" height="115" viewBox="0 0 115 115" fill="none" xmlns="http://www.w3.org/2000/svg">
<rect width="115" height="115" fill="#E5E5E5"/>
<g id="resume">
<rect width="115" height="115" fill="white"/>
<g id="bgCircs">
<circle id="lightCircle" opacity="0.9" cx="57.5" cy="57.5" r="57.5" fill="#FFFACF" fill-opacity="0.9"/>
<mask id="mask0_0_1" style="mask-type:alpha" maskUnits="userSpaceOnUse" x="0" y="0" width="115" height="115">
<circle id="lightCircle_2" opacity="0.9" cx="57.5" cy="57.5" r="57.5" fill="#FFFACF" fill-opacity="0.9"/>
</mask>
<g mask="url(#mask0_0_1)">
<circle id="blueCircle" cx="25.5" cy="89.5" r="25.5" fill="#8EB6D5"/>
<g id="cyanCircle" style="mix-blend-mode:hard-light">
<circle cx="91.5" cy="23.5" r="22.5" fill="#68F1D9"/>
</g>
<g id="burnCircle" style="mix-blend-mode:color-burn">
<circle cx="57.5" cy="58.5" r="40.5" fill="#388678"/>
</g>
</g>
</g>
<rect id="paper" x="24" y="18" width="67" height="81" rx="2" stroke="#2B4556" stroke-width="2"/>
<g id="horizon">
<path id="horizonLine" d="M12.5 101H102.5" stroke="#2B4556" stroke-width="2" stroke-linecap="round"/>
<path id="hinnderDotR" d="M106 101H108.5" stroke="#2B4556" stroke-width="2" stroke-linecap="round"/>
<path id="hinnerDotL" d="M9.5 101H7" stroke="#2B4556" stroke-width="2" stroke-linecap="round"/>
<circle id="houterdotR" cx="113" cy="101" r="1" fill="#2B4556"/>
<circle id="houterdotL" cx="3" cy="101" r="1" fill="#2B4556"/>
</g>
<g id="blueHorizon">
<path id="top" d="M44 106.5H71" stroke="#0DCEB1" stroke-width="2" stroke-linecap="round"/>
<path id="bottom" d="M49 110.5H66.5" stroke="#0DCEB1" stroke-width="2" stroke-linecap="round"/>
<path id="left" d="M34.5 106.5H40.5" stroke="#0DCEB1" stroke-width="2" stroke-linecap="round"/>
<path id="right" d="M75 106.5H81" stroke="#0DCEB1" stroke-width="2" stroke-linecap="round"/>
<rect id="connect" x="55.5" y="107.5" width="4" height="2" fill="#0DCEB1" stroke="#0DCEB1"/>
</g>
<g id="profile">
<path id="body" d="M30 46.5C30 37 31 34 38.5 34C45.5 34 48.5 34 48.5 46.5" stroke="#2B4556" stroke-width="2" stroke-linecap="round"/>
<circle id="head" cx="39" cy="28" r="5" stroke="#2B4556" stroke-width="2"/>
</g>
<g id="textLines">
<path id="line" d="M86.5 35.5H53" stroke="#0DCEB1" stroke-width="2" stroke-linecap="round"/>
<path id="RlineTopBlk" d="M86.5 40.5H69.5" stroke="#2B4556" stroke-width="2" stroke-linecap="round"/>
<path id="RlineTopBlue" d="M86.5 46H69.5" stroke="#0DCEB1" stroke-width="2" stroke-linecap="round"/>
<path id="line_2" d="M90.5 51.5H25" stroke="#2B4556" stroke-width="2" stroke-linecap="round"/>
<path id="LlineTopBlue" d="M29 57H45.5" stroke="#0DCEB1" stroke-width="2" stroke-linecap="round"/>
<path id="line_3" d="M29.5 62.5H86" stroke="#2B4556" stroke-width="2" stroke-linecap="round"/>
<path id="line_4" d="M29 67.5H86" stroke="#0DCEB1" stroke-width="2" stroke-linecap="round"/>
<path id="LlineMidSmolBlk" d="M29 73H45.5" stroke="#2B4556" stroke-width="2" stroke-linecap="round"/>
<path id="lineBlue" d="M29 78.5H86.5" stroke="#0DCEB1" stroke-width="2" stroke-linecap="round"/>
<path id="LlineMidLongBlk" d="M29 83.5H70" stroke="#2B4556" stroke-width="2" stroke-linecap="round"/>
<path id="RlineBotBlue" d="M53.5 90.5H85.5" stroke="#0DCEB1" stroke-width="2" stroke-linecap="round"/>
<path id="RlineBotBlk" d="M69.5 96H86" stroke="#2B4556" stroke-width="2" stroke-linecap="round"/>
</g>
<g id="stars">
<path id="star" d="M6.9991 5.95419L6.31157 5.96883C6.22461 5.97068 6.18112 5.9716 6.15572 5.99017C6.13256 6.00709 6.11778 6.03313 6.11514 6.06169C6.11224 6.09302 6.13374 6.13082 6.17676 6.20642L6.49758 6.77025L6.13431 6.20468C6.09055 6.13656 6.06868 6.1025 6.04094 6.09038C6.01563 6.07932 5.98688 6.07922 5.96149 6.09011C5.93367 6.10204 5.91156 6.13594 5.86734 6.20376L5.50018 6.76682L5.82487 6.20521C5.86841 6.12991 5.89018 6.09225 5.88749 6.0609C5.88504 6.03233 5.87045 6.00618 5.84741 5.98911C5.82213 5.97037 5.77865 5.96914 5.6917 5.96669L5.0043 5.94731L5.69182 5.93268C5.77879 5.93082 5.82227 5.9299 5.84768 5.91133C5.87083 5.89442 5.88561 5.86837 5.88825 5.83982C5.89116 5.80848 5.86965 5.77068 5.82663 5.69508L5.50581 5.13125L5.86909 5.69683C5.91284 5.76494 5.93471 5.799 5.96245 5.81112C5.98776 5.82218 6.01652 5.82228 6.0419 5.81139C6.06972 5.79946 6.09183 5.76556 6.13605 5.69774L6.50321 5.13469L6.17852 5.69629C6.13498 5.7716 6.11321 5.80925 6.1159 5.8406C6.11835 5.86917 6.13295 5.89532 6.15598 5.9124C6.18126 5.93113 6.22474 5.93236 6.31169 5.93481L6.9991 5.95419Z" fill="#0DCEB1" stroke="#0DCEB1" stroke-width="0.25" stroke-linecap="round"/>
<path id="star_2" d="M61.4413 5.76602L59.6683 5.79754C59.5748 5.7992 59.528 5.80003 59.502 5.81975C59.4783 5.8377 59.4639 5.86525 59.4625 5.89493C59.4611 5.92754 59.4869 5.9665 59.5386 6.04443L60.3579 7.27886L59.411 6.01481C59.3686 5.95817 59.3474 5.92984 59.3214 5.91941C59.2977 5.90986 59.2712 5.90977 59.2474 5.91915C59.2214 5.92941 59.2 5.95759 59.1572 6.01394L58.2016 7.27143L59.0293 6.04268C59.0816 5.96511 59.1077 5.92632 59.1065 5.8937C59.1054 5.86401 59.0911 5.83637 59.0675 5.81825C59.0417 5.79835 58.9949 5.7972 58.9014 5.79489L57.1286 5.75116L58.9017 5.71965C58.9952 5.71798 59.0419 5.71715 59.0679 5.69743C59.0916 5.67948 59.1061 5.65193 59.1074 5.62225C59.1089 5.58965 59.083 5.55068 59.0313 5.47275L58.212 4.23832L59.1589 5.50237C59.2014 5.55902 59.2226 5.58734 59.2485 5.59778C59.2723 5.60732 59.2987 5.60741 59.3225 5.59803C59.3485 5.58777 59.37 5.5596 59.4128 5.50325L60.3684 4.24575L59.5406 5.4745C59.4883 5.55208 59.4622 5.59086 59.4635 5.62348C59.4646 5.65317 59.4789 5.68082 59.5024 5.69893C59.5283 5.71883 59.575 5.71998 59.6685 5.72229L61.4413 5.76602Z" fill="#0DCEB1" stroke="#0DCEB1" stroke-width="0.5" stroke-linecap="round"/>
<path id="star_3" d="M79.9991 12.1289L78.357 12.1635C78.2697 12.1654 78.226 12.1663 78.2006 12.1849C78.1774 12.2019 78.1627 12.228 78.1601 12.2566C78.1572 12.288 78.179 12.3259 78.2224 12.4016L78.9954 13.7488L78.1349 12.4202C78.0912 12.3528 78.0694 12.3191 78.0417 12.307C78.0165 12.296 77.9879 12.2959 77.9626 12.3067C77.9348 12.3186 77.9128 12.3522 77.8686 12.4193L76.999 13.742L77.7812 12.4001C77.8252 12.3246 77.8472 12.2869 77.8446 12.2555C77.8422 12.2269 77.8276 12.2007 77.8045 12.1835C77.7792 12.1647 77.7356 12.1635 77.6483 12.1611L76.0065 12.1151L77.6486 12.0805C77.7359 12.0786 77.7795 12.0777 77.805 12.0591C77.8281 12.0421 77.8429 12.016 77.8455 11.9874C77.8483 11.956 77.8266 11.9181 77.7831 11.8424L77.0102 10.4952L77.8707 11.8238C77.9143 11.8912 77.9362 11.9249 77.9638 11.937C77.9891 11.948 78.0177 11.9481 78.043 11.9373C78.0707 11.9254 78.0928 11.8918 78.137 11.8247L79.0065 10.502L78.2243 11.8439C78.1804 11.9194 78.1584 11.9571 78.161 11.9885C78.1634 12.0171 78.178 12.0433 78.201 12.0605C78.2263 12.0793 78.27 12.0805 78.3573 12.0829L79.9991 12.1289Z" fill="#0DCEB1" stroke="#0DCEB1" stroke-width="0.4" stroke-linecap="round"/>
<path id="star_4" d="M9.74613 47.0112L8.2082 47.0489C8.12575 47.0509 8.08453 47.0519 8.0596 47.0697C8.03687 47.0858 8.02192 47.1107 8.01837 47.1384C8.01447 47.1687 8.033 47.2056 8.07005 47.2793L8.80535 48.7415L8.01333 47.3464C7.96886 47.2681 7.94662 47.2289 7.91755 47.2154C7.89108 47.2031 7.86057 47.203 7.83402 47.2151C7.80486 47.2284 7.78235 47.2674 7.73734 47.3455L6.93573 48.735L7.68108 47.2779C7.71864 47.2045 7.73742 47.1678 7.73374 47.1374C7.73038 47.1097 7.7156 47.0847 7.69298 47.0684C7.66818 47.0505 7.62696 47.0492 7.54452 47.0466L6.0069 46.9983L7.54482 46.9606C7.62727 46.9585 7.6685 46.9575 7.69342 46.9398C7.71616 46.9236 7.7311 46.8987 7.73466 46.871C7.73855 46.8407 7.72002 46.8039 7.68297 46.7302L6.94768 45.268L7.73969 46.663C7.78417 46.7414 7.8064 46.7805 7.83547 46.794C7.86194 46.8063 7.89245 46.8064 7.91901 46.7943C7.94816 46.781 7.97067 46.742 8.01568 46.664L8.81729 45.2744L8.07194 46.7315C8.03438 46.8049 8.0156 46.8417 8.01928 46.872C8.02264 46.8997 8.03742 46.9247 8.06004 46.9411C8.08485 46.959 8.12606 46.9603 8.2085 46.9628L9.74613 47.0112Z" fill="#0DCEB1" stroke="#0DCEB1" stroke-width="0.3" stroke-linecap="round"/>
<path id="star_5" d="M101.441 17.5115L99.7577 17.5491C99.6723 17.551 99.6296 17.5519 99.6043 17.5702C99.5813 17.5869 99.5665 17.6125 99.5635 17.6408C99.5603 17.6718 99.5808 17.7093 99.6217 17.7843L100.419 19.2424L99.5424 17.8222C99.4984 17.7509 99.4764 17.7152 99.4482 17.7027C99.4225 17.6912 99.3932 17.6911 99.3674 17.7024C99.3392 17.7148 99.3169 17.7503 99.2724 17.8213L98.3862 19.2354L99.1933 17.7828C99.2348 17.7081 99.2556 17.6708 99.2526 17.6397C99.2498 17.6114 99.2351 17.5857 99.2122 17.5688C99.1871 17.5504 99.1444 17.5491 99.059 17.5466L97.3759 17.4975L99.0593 17.46C99.1447 17.4581 99.1874 17.4571 99.2127 17.4388C99.2357 17.4222 99.2505 17.3965 99.2535 17.3682C99.2567 17.3372 99.2362 17.2997 99.1952 17.2247L98.3982 15.7667L99.2746 17.1868C99.3186 17.2581 99.3406 17.2938 99.3688 17.3064C99.3945 17.3178 99.4238 17.3179 99.4496 17.3066C99.4778 17.2943 99.5001 17.2588 99.5446 17.1877L100.431 15.7737L99.6237 17.2262C99.5822 17.3009 99.5614 17.3383 99.5644 17.3693C99.5672 17.3976 99.5819 17.4234 99.6048 17.4402C99.6299 17.4586 99.6726 17.4599 99.758 17.4624L101.441 17.5115Z" fill="#0DCEB1" stroke="#0DCEB1" stroke-width="0.5" stroke-linecap="round"/>
</g>
<g id="skydots">
<circle id="skydot" cx="47" cy="4" r="1.6" stroke="#2E475A" stroke-width="0.8"/>
<circle id="skydot_2" cx="16.5" cy="26.5" r="1.2" stroke="#2E475A" stroke-width="0.6"/>
<circle id="skydot_3" cx="111.5" cy="31.5" r="1.2" stroke="#2E475A" stroke-width="0.6"/>
<circle id="skydot_4" cx="98" cy="42" r="1.55" stroke="#2E475A" stroke-width="0.9"/>
<circle id="skydot_5" cx="106" cy="3" r="0.75" stroke="#2E475A" stroke-width="0.5"/>
</g>
</g>
</svg>
