<svg width="115" height="115" viewBox="0 0 115 115" fill="none" xmlns="http://www.w3.org/2000/svg">
<rect width="115" height="115" fill="white"/>
<mask id="mask0_1_54" style="mask-type:alpha" maskUnits="userSpaceOnUse" x="17" y="11" width="84" height="85">
<path d="M59 12.5C17.5 12.5 13 60.5 24 73.5C35.5 70.5 39.3977 94.5 59 94.5C75 94.5 85 68 96 73.5C104.5 50.5 96 12.5 59 12.5Z" fill="#C4C4C4" stroke="#0DCEB1" stroke-width="2" stroke-linecap="round"/>
</mask>
<g mask="url(#mask0_1_54)">
<circle cx="59" cy="53" r="42" fill="#F1F8CE"/>
<ellipse cx="59" cy="93" rx="27" ry="20" fill="#388678"/>
</g>
<circle cx="22.5" cy="22.5" r="22.5" fill="#ABF4E7"/>
<g style="mix-blend-mode:exclusion">
<circle cx="89.5" cy="89.5" r="25.5" fill="#62311C"/>
</g>
<path d="M61.7729 64C59.2729 83 68.7729 69.56 72.2729 72.5C84.7729 83 87.2729 68 95.2729 72.5C105.273 51 93.7729 13 59.2729 13C19.2729 13 12.7729 56 23.7729 72.5C27.7729 69 32.7729 83 45.2729 72.5C49.2729 69.14 56.7729 83.5 55.2729 64" stroke="#3D4750" stroke-width="2"/>
<path d="M58 34C54 34 54 42 58 42C62 42 62 34 58 34Z" stroke="#24303A" stroke-width="1.5"/>
<path d="M63.5 63.5H54C53.5 63 53 61.5 51.5 58C44.2628 59.5 46.6 70.5 46 68.5C43 58.5 44 49 50 49C46 35.5 54 30 58 24C63 30 69.5 34 67 49C75.5 49 71 70 71 68.5C71 59.5 67 58 65 58L63.5 63.5Z" stroke="#24303A" stroke-width="1.5"/>
<path d="M56 53H61" stroke="#59DCC9" stroke-width="2.5" stroke-linecap="round"/>
<path d="M56 89C48 94.5 46.5 87.6 42.5 90C37.5 93 34 94.1087 23.5 90C22 89.413 20.5 89 18.5 90" stroke="#59DCC9" stroke-width="2" stroke-linecap="round"/>
<path d="M56 81C50.5 87 46.5 80.25 45 81C42 82.5 36 88.5 26 82.5C24 81.3 20.8333 82 19.5 82.5" stroke="#59DCC9" stroke-width="2" stroke-linecap="round"/>
<path d="M61 89.237C68.8933 94.8583 70.3733 87.8061 74.32 90.259C79.2533 93.3252 82.7067 94.4584 93.0667 90.259C94.5467 89.6591 96.0267 89.237 98 90.259" stroke="#59DCC9" stroke-width="2" stroke-linecap="round"/>
<path d="M61 81.0604C66.4267 87.1928 70.3733 80.2938 71.8533 81.0604C74.8133 82.5935 80.7333 88.7259 90.6 82.5935C92.5733 81.367 95.6978 82.0825 97.0133 82.5935" stroke="#59DCC9" stroke-width="2" stroke-linecap="round"/>
<path d="M15 95H101.5" stroke="#2A3F50" stroke-width="2" stroke-linecap="round"/>
<path d="M105 95H107" stroke="#2A3F50" stroke-width="2" stroke-linecap="round"/>
<circle cx="111" cy="95" r="1" fill="#2A3F50"/>
<path d="M12 95H10" stroke="#2A3F50" stroke-width="2" stroke-linecap="round"/>
<circle cx="6" cy="95" r="1" transform="rotate(-180 6 95)" fill="#2A3F50"/>
<path d="M45.5 100.5H71" stroke="#0DCEB1" stroke-width="2" stroke-linecap="round"/>
<path d="M50.5 104.5H66.5" stroke="#0DCEB1" stroke-width="2" stroke-linecap="round"/>
<path d="M56.5 104V101.5H60V104H56.5Z" fill="#0DCEB1" stroke="#0DCEB1" stroke-width="2" stroke-linecap="round"/>
<path d="M42 100.5H36.5" stroke="#0DCEB1" stroke-width="2" stroke-linecap="round"/>
<path d="M74.5 100.5H80" stroke="#0DCEB1" stroke-width="2" stroke-linecap="round"/>
<path d="M11.4392 24.5645L10.0532 24.5967C9.96905 24.5987 9.92697 24.5996 9.90185 24.6177C9.87895 24.6341 9.86406 24.6595 9.86085 24.6875C9.85733 24.7182 9.87699 24.7555 9.9163 24.8299L10.5754 26.0781L9.85731 24.8735C9.81309 24.7993 9.79098 24.7622 9.76242 24.7493C9.7364 24.7375 9.70657 24.7374 9.68047 24.749C9.65183 24.7618 9.62946 24.7987 9.58473 24.8726L8.85832 26.0722L9.52604 24.8286C9.56586 24.7544 9.58578 24.7173 9.58247 24.6866C9.57945 24.6585 9.56474 24.6331 9.54195 24.6164C9.51696 24.5982 9.47489 24.597 9.39074 24.5944L8.00499 24.5527L9.39099 24.5206C9.47516 24.5186 9.51724 24.5176 9.54236 24.4996C9.56526 24.4831 9.58015 24.4578 9.58335 24.4298C9.58687 24.399 9.56722 24.3618 9.5279 24.2874L8.86877 23.0391L9.58689 24.2438C9.63112 24.3179 9.65323 24.355 9.68178 24.368C9.70781 24.3798 9.73763 24.3799 9.76374 24.3683C9.79238 24.3555 9.81474 24.3186 9.85948 24.2447L10.5859 23.045L9.91817 24.2887C9.87834 24.3629 9.85843 24.4 9.86174 24.4307C9.86475 24.4587 9.87947 24.4842 9.90225 24.5008C9.92724 24.519 9.96932 24.5203 10.0535 24.5228L11.4392 24.5645Z" fill="#0DCEB1" stroke="#0DCEB1" stroke-width="0.5" stroke-linecap="round"/>
<path d="M25.9981 2.95116L25.3105 2.9658C25.2236 2.96766 25.1801 2.96858 25.1547 2.98715C25.1315 3.00406 25.1167 3.03011 25.1141 3.05866C25.1112 3.08999 25.1327 3.1278 25.1757 3.2034L25.4965 3.76723L25.1333 3.20165C25.0895 3.13354 25.0676 3.09948 25.0399 3.08736C25.0146 3.0763 24.9858 3.0762 24.9604 3.08709C24.9326 3.09902 24.9105 3.13292 24.8663 3.20073L24.4991 3.76379L24.8238 3.20219C24.8674 3.12688 24.8891 3.08923 24.8864 3.05788C24.884 3.02931 24.8694 3.00316 24.8464 2.98608C24.8211 2.96734 24.7776 2.96612 24.6907 2.96367L24.0033 2.94429L24.6908 2.92965C24.7777 2.9278 24.8212 2.92687 24.8466 2.90831C24.8698 2.89139 24.8846 2.86535 24.8872 2.83679C24.8901 2.80546 24.8686 2.76766 24.8256 2.69206L24.5048 2.12823L24.868 2.6938C24.9118 2.76192 24.9337 2.79598 24.9614 2.8081C24.9867 2.81916 25.0155 2.81925 25.0409 2.80837C25.0687 2.79644 25.0908 2.76253 25.135 2.69472L25.5022 2.13166L25.1775 2.69327C25.1339 2.76857 25.1122 2.80623 25.1149 2.83758C25.1173 2.86615 25.1319 2.8923 25.1549 2.90937C25.1802 2.92811 25.2237 2.92934 25.3106 2.93179L25.9981 2.95116Z" fill="#0DCEB1" stroke="#0DCEB1" stroke-width="0.25" stroke-linecap="round"/>
<path d="M80.4403 2.763L78.6672 2.79451C78.5737 2.79617 78.527 2.79701 78.501 2.81673C78.4773 2.83468 78.4628 2.86223 78.4615 2.89191C78.46 2.92451 78.4859 2.96348 78.5376 3.04141L79.3569 4.27583L78.41 3.01179C78.3675 2.95514 78.3463 2.92682 78.3204 2.91638C78.2966 2.90684 78.2702 2.90675 78.2464 2.91613C78.2204 2.92639 78.1989 2.95456 78.1561 3.01091L77.2005 4.26841L78.0283 3.03966C78.0806 2.96208 78.1067 2.9233 78.1054 2.89068C78.1043 2.86099 78.09 2.83334 78.0665 2.81523C78.0406 2.79533 77.9939 2.79418 77.9004 2.79187L76.1276 2.74814L77.9006 2.71662C77.9941 2.71496 78.0409 2.71413 78.0669 2.69441C78.0906 2.67646 78.105 2.64891 78.1064 2.61923C78.1078 2.58662 78.082 2.54766 78.0303 2.46972L77.211 1.2353L78.1579 2.49935C78.2003 2.55599 78.2215 2.58432 78.2475 2.59475C78.2712 2.6043 78.2977 2.60439 78.3215 2.59501C78.3475 2.58475 78.3689 2.55657 78.4117 2.50022L79.3673 1.24273L78.5396 2.47148C78.4873 2.54905 78.4612 2.58784 78.4624 2.62046C78.4635 2.65014 78.4778 2.67779 78.5014 2.69591C78.5272 2.71581 78.574 2.71696 78.6675 2.71927L80.4403 2.763Z" fill="#0DCEB1" stroke="#0DCEB1" stroke-width="0.5" stroke-linecap="round"/>
<path d="M79.0051 13.5052L77.8306 13.5317C77.7456 13.5336 77.7031 13.5346 77.6779 13.5528C77.655 13.5694 77.6401 13.595 77.6371 13.6231C77.6337 13.654 77.6539 13.6914 77.6943 13.7662L78.2511 14.7971L77.6405 13.7957C77.5964 13.7234 77.5743 13.6872 77.546 13.6745C77.5202 13.6629 77.4907 13.6628 77.4648 13.6742C77.4364 13.6867 77.4141 13.7227 77.3695 13.7947L76.752 14.792L77.3159 13.7649C77.3568 13.6904 77.3773 13.6532 77.3742 13.6222C77.3713 13.594 77.3566 13.5684 77.3338 13.5516C77.3087 13.5332 77.2662 13.532 77.1812 13.5295L76.0069 13.4948L77.1814 13.4683C77.2664 13.4664 77.3089 13.4654 77.3341 13.4472C77.3571 13.4306 77.372 13.405 77.375 13.3769C77.3784 13.346 77.3582 13.3086 77.3178 13.2338L76.7609 12.2028L77.3716 13.2043C77.4157 13.2766 77.4377 13.3128 77.466 13.3255C77.4918 13.3371 77.5213 13.3372 77.5472 13.3258C77.5756 13.3133 77.5979 13.2773 77.6425 13.2053L78.2601 12.208L77.6961 13.2351C77.6552 13.3096 77.6348 13.3468 77.6379 13.3778C77.6407 13.406 77.6554 13.4316 77.6783 13.4484C77.7034 13.4668 77.7459 13.468 77.8308 13.4705L79.0051 13.5052Z" fill="#0DCEB1" stroke="#0DCEB1" stroke-width="0.4" stroke-linecap="round"/>
<path d="M112.749 18.2555L111.707 18.2768C111.619 18.2786 111.575 18.2795 111.549 18.2983C111.526 18.3154 111.511 18.3418 111.509 18.3706C111.506 18.4022 111.529 18.4403 111.574 18.5164L112.059 19.3411L111.508 18.5115C111.464 18.446 111.442 18.4132 111.415 18.4015C111.39 18.3907 111.362 18.3906 111.337 18.4012C111.309 18.4128 111.287 18.4454 111.243 18.5105L110.687 19.3364L111.178 18.515C111.223 18.4392 111.246 18.4013 111.243 18.3697C111.241 18.3409 111.227 18.3144 111.203 18.2971C111.178 18.2781 111.134 18.2769 111.046 18.2745L110.004 18.246L111.046 18.2247C111.134 18.2229 111.178 18.222 111.204 18.2032C111.227 18.186 111.242 18.1597 111.244 18.1309C111.247 18.0993 111.224 18.0612 111.179 17.9851L110.694 17.1604L111.245 17.99C111.289 18.0555 111.311 18.0883 111.338 18.1C111.363 18.1107 111.391 18.1108 111.416 18.1003C111.444 18.0887 111.466 18.0561 111.51 17.9909L112.066 17.1651L111.575 17.9864C111.53 18.0623 111.507 18.1002 111.51 18.1318C111.512 18.1606 111.526 18.1871 111.55 18.2044C111.575 18.2233 111.619 18.2245 111.707 18.227L112.749 18.2555Z" fill="#0DCEB1" stroke="#0DCEB1" stroke-width="0.3" stroke-linecap="round"/>
<circle cx="59" cy="4" r="1.65" stroke="#2E475A" stroke-width="0.7"/>
<circle cx="36" cy="14" r="0.75" stroke="#2E475A" stroke-width="0.5"/>
<circle cx="18.5" cy="27.5" r="1.2" stroke="#2E475A" stroke-width="0.6"/>
<circle cx="99.5" cy="7.5" r="2.05" stroke="#2E475A" stroke-width="0.9"/>
<circle cx="98" cy="27" r="0.8" stroke="#2E475A" stroke-width="0.4"/>
</svg>
