<svg xmlns="http://www.w3.org/2000/svg" data-name="Layer 1" viewBox="0 0 168 168"><path fill="#2d4356" d="M28.4516,117.63544a1.98079,1.98079,0,0,0,1.26605-.049c2.70313-1.037,5.78271.37891,9.042,1.88184.65674.30267,1.312.60449,1.96381.88666,2.82825,1.22565,6.07861,2.63385,9.562,2.63385a12.22465,12.22465,0,0,0,6.855-2.10352c.37994-.249.77643-.52539,1.1875-.8125,1.53473-1.07031,3.274-2.28418,4.74615-2.3584a11.28118,11.28118,0,0,1,3.3277,1.25977l.31976.163c2.9726,1.51959,7.04541,3.60162,11.0376,1.26471,3.9726-2.32422,4.31641-7.1084,4.23-10.50488l-.00934-.35455a40.9342,40.9342,0,0,0-.31451-4.84467c-.14789-1.02338-.33246-2.042-.51709-3.05963-.09869-.54468-.18408-1.09119-.27686-1.63666h6.25836c-.09247.54388-.17749,1.089-.27637,1.63177-.18463,1.01959-.36914,2.03912-.51764,3.0625a40.70714,40.70714,0,0,0-.31537,4.81842l-.00983.38281c-.08777,3.39648.2569,8.17969,4.23541,10.50488,3.998,2.33789,8.07233.25592,11.04877-1.26373l.31842-.162a10.98613,10.98613,0,0,1,3.28711-1.2627l.05078.001c1.47565.07422,3.21686,1.28809,4.75391,2.35938.41113.28711.80859.56342,1.18939.8125a12.23668,12.23668,0,0,0,6.8623,2.1015c3.4873,0,6.74225-1.40717,9.5733-2.63177,3.81641-1.65143,8.56934-3.70612,11.95209-2.4043a2.29435,2.29435,0,0,0,2.69635-1.10352c3.6582-7.82422,6.02148-20.12207,6.02148-31.33008,0-36.126-28.71-65.5166-64-65.5166-35.28961,0-64,29.39056-64,65.5166,0,11.87988,2.623,23.52338,7.01709,31.14838A1.99,1.99,0,0,0,28.4516,117.63544Zm49.05554-21.634c-.42816-1.07422-.88818-2.21869-1.15088-2.84082l-1.268-3.00287-3.19727.63666a9.42906,9.42906,0,0,0-6.34235,4.76849A17.33108,17.33108,0,0,0,64.435,97.75635a26.18194,26.18194,0,0,1-.1123-8.86133c.73035-4.23926,2.69427-7.44537,5.52875-9.02637l2.289-1.27643-.25629-2.6084a48.27491,48.27491,0,0,1-.16119-7.58588,37.82882,37.82882,0,0,1,12.31842-26.2959A37.81838,37.81838,0,0,1,96.35828,68.39984a48.12976,48.12976,0,0,1-.16992,7.64069l-.25781,2.5918,2.2666,1.28412c2.8916,1.6377,4.85742,4.94928,5.53613,9.32233a26.49406,26.49406,0,0,1-.16888,8.51166,17.15341,17.15341,0,0,0-1.21881-2.36328c-1.29779-2.0683-3.08112-4.2373-6.46582-4.6416l-2.98627-.35638-1.17194,2.76947c-.26367.62213-.72461,1.76764-1.1524,2.84283Zm6.49274-72c33.084,0,60,27.59668,60,61.5166,0,10.003-1.94781,20.85321-5.01691,28.21417-4.455-.841-9.27643,1.2384-13.24091,2.95178-5.23242,2.26172-8.69427,3.44733-12.65717.85553-.34961-.22949-.7149-.4834-1.09283-.74713-1.87988-1.31049-4.21973-2.94135-6.8399-3.07214-1.8515-.09875-3.96088.98035-5.44531,1.73724l-.23041.1181c-2.98828,1.52441-5.25385,2.51764-7.21289,1.37311-1.6358-.95605-2.35156-3.16406-2.25488-6.94727l.00983-.38574a37.77658,37.77658,0,0,1,.27625-4.3457c.1416-.9776.31842-1.9502.4942-2.92187.14221-.781.272-1.5636.39685-2.34668H93.287s1.5567-3.957,2.11816-5.28424c1.59473.19055,2.50293,1.124,3.5517,2.7959,1.32031,2.10455,2.39264,5.5498,3.084,10.40143,0,0,.13666.9599.30566,2.14258.08978.62689.28119.94434.51459.94434.208,0,.44922-.251.68073-.76074l.88867-1.96c3.13574-6.91992,4.15521-13.8457,3.2558-19.6543-.83789-5.39941-3.416-9.86719-7.51758-12.19043a51.97762,51.97762,0,0,0,.18268-8.2774A42.2212,42.2212,0,0,0,84.83386,37.47217s-.17682-.14844-.39648-.332a.63623.63623,0,0,0-.793,0l-.39648.332A42.22832,42.22832,0,0,0,67.73035,68.15863a52.13239,52.13239,0,0,0,.17285,8.2168c-4.03613,2.251-6.6181,6.59283-7.5224,11.8399-1.01471,5.88959-.01862,12.98431,3.19135,20.06543,0,0,.39844.87787.88965,1.96.23151.5097.47217.76074.68018.76074.2334,0,.42529-.31744.51422-.94434l.3056-2.14258c.67865-4.75592,1.71967-8.15918,3.00488-10.2735a5.506,5.506,0,0,1,3.70508-2.92383c.56049,1.32721,2.11719,5.28424,2.11719,5.28424h2.02643c.12518.78491.25537,1.56866.3974,2.35156.17578.96973.35248,1.94043.49359,2.917a38.03787,38.03787,0,0,1,.2749,4.372l.00879.35742c.09674,3.78619-.6181,5.9942-2.25085,6.94928-1.95123,1.14551-4.21393.15131-7.19684-1.37311l-.32227-.164c-1.39215-.711-3.501-1.78418-5.34723-1.69135-2.6181.1308-4.956,1.76166-6.83392,3.07214-.378.26373-.74219.51862-1.09088.74713-3.956,2.5918-7.4126,1.40723-12.6347-.85449-.624-.27051-1.25049-.55963-1.87891-.84961-3.25031-1.49829-6.88409-3.17151-10.62726-2.42261-4.26123-8.23462-5.80731-19.66522-5.80731-27.89478C23.99988,51.59814,50.91589,24.00146,83.99988,24.00146Z"/><path fill="#2d4356" d="M84.00085 52.00146c-3.3653 0-6.001 3.51367-6.001 8s2.63568 8 6.001 8c3.3642 0 5.999-3.51373 5.999-8S87.36505 52.00146 84.00085 52.00146zm0 12c-.81586 0-2.001-1.55859-2.001-4s1.18512-4 2.001-4c.81494 0 1.999 1.55859 1.999 4S84.8158 64.00146 84.00085 64.00146zM78.46466 126.71924c-3.41058 4.083-5.96136 3.06641-9.48822 1.6582a13.70521 13.70521 0 0 0-5.566-1.36328c-3.13806.12207-5.60687 1.4502-7.99408 2.73529-.48682.26178-.97363.5235-1.46582.7735-5.15137 2.61908-9.76166 1.39648-16.207-.76758l-.71832-.24225c-5.00537-1.68939-10.18262-3.43646-15.59717-1.82214a2.00039 2.00039 0 0 0 1.14355 3.83386c4.19434-1.25189 8.55664.21881 13.1748 1.77838l.72412.24414c3.50879 1.17767 7.30316 2.45117 11.32758 2.45117a17.25058 17.25058 0 0 0 7.96442-1.90918c.52-.26471 1.03467-.541 1.54932-.81842 2.07806-1.1181 4.041-2.17377 6.25439-2.26068a11.29914 11.29914 0 0 1 3.92767 1.082c3.70068 1.47662 8.771 3.499 14.04114-2.80859a2.00023 2.00023 0 0 0-3.07043-2.56439zM130.97449 129.51215l-.71875.24219c-6.4444 2.16412-11.05469 3.3877-16.20709.76862-.49219-.25-.97845-.51172-1.46478-.7735-2.3877-1.2851-4.85651-2.61322-7.9942-2.73529a13.53927 13.53927 0 0 0-5.56641 1.36328c-3.52826 1.40918-6.07709 2.4248-9.48816-1.6582a2.00023 2.00023 0 0 0-3.07043 2.56439c5.26959 6.30859 10.33893 4.28711 14.04114 2.80859a11.38626 11.38626 0 0 1 3.92767-1.082c2.21387.08691 4.17682 1.14349 6.25488 2.26172.51361.27637 1.02832.55267 1.54779.81738a17.2439 17.2439 0 0 0 7.9649 1.90918c4.02441 0 7.81934-1.2735 11.32812-2.45221l.72461-.2431c4.61816-1.55957 8.98047-3.03027 13.17377-1.77838a2.00054 2.00054 0 1 0 1.14459-3.83386C141.15906 126.07764 135.98126 127.82373 130.97449 129.51215zM148 15a3 3 0 1 0-3-3A3.00344 3.00344 0 0 0 148 15zm0-4.5a1.5 1.5 0 1 1-1.5 1.5A1.50148 1.50148 0 0 1 148 10.5zM85 10a3 3 0 1 0-3-3A3.00344 3.00344 0 0 0 85 10zm0-4.5A1.5 1.5 0 1 1 83.5 7 1.50148 1.50148 0 0 1 85 5.5zM147 46a2 2 0 1 0-2-2A2.00229 2.00229 0 0 0 147 46zm0-3a1 1 0 1 1-1 1A1.001 1.001 0 0 1 147 43zM50 26a2 2 0 1 0-2-2A2.00229 2.00229 0 0 0 50 26zm0-3a1 1 0 1 1-1 1A1.001 1.001 0 0 1 50 23zM22 46a2 2 0 1 0-2-2A2.00229 2.00229 0 0 0 22 46zm0-3a1 1 0 1 1-1 1A1.001 1.001 0 0 1 22 43z"/><circle cx="2" cy="149" r="2" fill="#2d4356"/><path fill="#2d4356" d="M11 147H8a2 2 0 0 0 0 4h3a2 2 0 0 0 0-4zM160 147h-3a2 2 0 0 0 0 4h3a2 2 0 0 0 0-4z"/><circle cx="166" cy="149" r="2" fill="#2d4356"/><path fill="#2d4356" d="M150.72131,147H126.86383c1.60364-.43213,3.16229-.94873,4.66534-1.45367l.72461-.2431c4.61816-1.55859,8.98047-3.03125,13.17377-1.77838a2.00054,2.00054,0,1,0,1.14459-3.83386c-5.41309-1.61432-10.59088.13275-15.59766,1.82117l-.71875.24219c-6.4444,2.16412-11.05469,3.38672-16.20709.76862-.49219-.25-.97845-.51172-1.46478-.7735-2.3877-1.2851-4.85651-2.61322-7.9942-2.73529a13.47817,13.47817,0,0,0-5.56641,1.36328c-3.52826,1.4082-6.07709,2.42578-9.48816-1.6582a2.00023,2.00023,0,0,0-3.07043,2.56439c5.26959,6.30859,10.33893,4.28619,14.04114,2.80859a11.47281,11.47281,0,0,1,3.92767-1.082c2.21387.08691,4.17682,1.14349,6.25488,2.26172.51361.27637,1.02832.55267,1.54779.81738A18.05216,18.05216,0,0,0,114.35254,147h-60.707a18.05252,18.05252,0,0,0,2.117-.91064c.52-.26471,1.03467-.541,1.54932-.81842,2.07806-1.1181,4.041-2.17377,6.25439-2.26068a11.19289,11.19289,0,0,1,3.92767,1.082c3.70068,1.4776,8.771,3.499,14.04114-2.80859a2.00023,2.00023,0,0,0-3.07043-2.56439c-3.41058,4.083-5.96136,3.06543-9.48822,1.6582a13.65815,13.65815,0,0,0-5.566-1.36328c-3.13806.12207-5.60687,1.4502-7.99408,2.73529-.48682.26178-.97363.5235-1.46582.7735-5.15137,2.61908-9.76166,1.39648-16.207-.76758l-.71832-.24225c-5.00537-1.68939-10.18262-3.43549-15.59717-1.82214a2.00039,2.00039,0,0,0,1.14355,3.83386c4.19434-1.25287,8.55664.21979,13.1748,1.77838l.72412.24414c1.50281.50439,3.0611,1.02063,4.66431,1.45264H17.27869a2.017,2.017,0,1,0,0,4H150.72131a2.017,2.017,0,1,0,0-4Z"/><path fill="#0bceb2" d="M79.99988,86.00146h8a2,2,0,0,0,0-4h-8a2,2,0,0,0,0,4Z"/><polygon fill="#0bceb2" points="8.583 39.011 10.07 37.056 9.131 36.524 8.177 38.714 8.145 38.714 7.175 36.539 6.22 37.087 7.691 38.996 7.691 39.027 5.391 38.73 5.391 39.794 7.707 39.497 7.707 39.528 6.22 41.436 7.112 42 8.13 39.794 8.16 39.794 9.099 41.984 10.085 41.421 8.583 39.543 8.583 39.512 10.945 39.794 10.945 38.73 8.583 39.042 8.583 39.011"/><polygon fill="#0bceb2" points="33.281 4.769 34.137 3.643 33.597 3.337 33.047 4.598 33.029 4.598 32.471 3.345 31.92 3.661 32.768 4.76 32.768 4.778 31.443 4.607 31.443 5.22 32.777 5.049 32.777 5.067 31.92 6.166 32.434 6.49 33.02 5.22 33.038 5.22 33.578 6.481 34.146 6.157 33.281 5.075 33.281 5.057 34.641 5.22 34.641 4.607 33.281 4.787 33.281 4.769"/><polygon fill="#0bceb2" points="114.823 5.453 113.365 7.325 114.24 7.878 115.238 5.713 115.268 5.713 116.189 7.862 117.156 7.31 115.683 5.468 115.683 5.437 118 5.713 118 4.67 115.683 4.977 115.683 4.946 117.142 3.028 116.221 2.506 115.285 4.654 115.253 4.654 114.302 2.521 113.365 3.059 114.808 4.931 114.808 4.962 112.552 4.67 112.552 5.713 114.823 5.422 114.823 5.453"/><polygon fill="#0bceb2" points="113.702 23.023 112.444 24.638 113.198 25.115 114.06 23.248 114.085 23.248 114.88 25.101 115.714 24.625 114.443 23.036 114.443 23.009 116.442 23.248 116.442 22.348 114.443 22.612 114.443 22.586 115.701 20.931 114.907 20.481 114.099 22.334 114.073 22.334 113.252 20.494 112.444 20.958 113.689 22.573 113.689 22.599 111.742 22.348 111.742 23.248 113.702 22.996 113.702 23.023"/><path fill="#0bceb2" d="M118.15387 156h-8.30774a2.00641 2.00641 0 0 0 0 4h8.30774a2.00641 2.00641 0 0 0 0-4zM58.15387 156H49.84613a2.00641 2.00641 0 0 0 0 4h8.30774a2.00641 2.00641 0 0 0 0-4zM104 156H64a2 2 0 0 0 0 4H79.94v2H72a2 2 0 0 0 0 4H97a2 2 0 0 0 0-4H88.06v-2H104a2 2 0 0 0 0-4z"/></svg>